<mxfile host="app.diagrams.net" agent="Mozilla/5.0 (Windows NT 10.0; Win64; x64) AppleWebKit/537.36 (KHTML, like Gecko) Chrome/127.0.0.0 Safari/537.36" version="24.7.7">
  <diagram name="PÃ¡gina-1" id="BGmpvaptrccDV1M2X3Ah">
    <mxGraphModel dx="2003" dy="626" grid="1" gridSize="10" guides="1" tooltips="1" connect="1" arrows="1" fold="1" page="1" pageScale="1" pageWidth="827" pageHeight="1169" math="0" shadow="0">
      <root>
        <mxCell id="0" />
        <mxCell id="1" parent="0" />
        <mxCell id="jj1MWOnxCpiDVjHV4AiB-37" style="edgeStyle=orthogonalEdgeStyle;rounded=0;orthogonalLoop=1;jettySize=auto;html=1;entryX=0.5;entryY=0;entryDx=0;entryDy=0;" parent="1" source="jj1MWOnxCpiDVjHV4AiB-2" target="jj1MWOnxCpiDVjHV4AiB-10" edge="1">
          <mxGeometry relative="1" as="geometry">
            <mxPoint x="410" y="220" as="targetPoint" />
            <Array as="points">
              <mxPoint x="135" y="140" />
              <mxPoint x="135" y="140" />
            </Array>
          </mxGeometry>
        </mxCell>
        <mxCell id="m9WbxkBDuGPvymWc-Egg-11" style="edgeStyle=orthogonalEdgeStyle;rounded=0;orthogonalLoop=1;jettySize=auto;html=1;entryX=1;entryY=0.5;entryDx=0;entryDy=0;exitX=0;exitY=0.5;exitDx=0;exitDy=0;" parent="1" source="jj1MWOnxCpiDVjHV4AiB-2" target="m9WbxkBDuGPvymWc-Egg-9" edge="1">
          <mxGeometry relative="1" as="geometry">
            <Array as="points">
              <mxPoint x="105" y="40" />
              <mxPoint x="-10" y="40" />
            </Array>
          </mxGeometry>
        </mxCell>
        <mxCell id="m9WbxkBDuGPvymWc-Egg-51" style="edgeStyle=orthogonalEdgeStyle;rounded=0;orthogonalLoop=1;jettySize=auto;html=1;exitX=0;exitY=1;exitDx=0;exitDy=0;entryX=1;entryY=0.5;entryDx=0;entryDy=0;" parent="1" source="jj1MWOnxCpiDVjHV4AiB-2" target="m9WbxkBDuGPvymWc-Egg-40" edge="1">
          <mxGeometry relative="1" as="geometry">
            <Array as="points">
              <mxPoint x="30" y="101" />
              <mxPoint x="30" y="230" />
            </Array>
          </mxGeometry>
        </mxCell>
        <mxCell id="m9WbxkBDuGPvymWc-Egg-74" style="edgeStyle=orthogonalEdgeStyle;rounded=0;orthogonalLoop=1;jettySize=auto;html=1;exitX=1;exitY=0.5;exitDx=0;exitDy=0;entryX=0;entryY=0.5;entryDx=0;entryDy=0;" parent="1" source="jj1MWOnxCpiDVjHV4AiB-2" target="m9WbxkBDuGPvymWc-Egg-16" edge="1">
          <mxGeometry relative="1" as="geometry">
            <Array as="points">
              <mxPoint x="230" y="80" />
              <mxPoint x="230" y="115" />
            </Array>
          </mxGeometry>
        </mxCell>
        <mxCell id="m9WbxkBDuGPvymWc-Egg-77" style="edgeStyle=orthogonalEdgeStyle;rounded=0;orthogonalLoop=1;jettySize=auto;html=1;exitX=1;exitY=0;exitDx=0;exitDy=0;entryX=0;entryY=0.5;entryDx=0;entryDy=0;" parent="1" source="jj1MWOnxCpiDVjHV4AiB-2" target="m9WbxkBDuGPvymWc-Egg-14" edge="1">
          <mxGeometry relative="1" as="geometry" />
        </mxCell>
        <mxCell id="m9WbxkBDuGPvymWc-Egg-78" style="edgeStyle=orthogonalEdgeStyle;rounded=0;orthogonalLoop=1;jettySize=auto;html=1;exitX=1;exitY=1;exitDx=0;exitDy=0;entryX=0;entryY=0.5;entryDx=0;entryDy=0;" parent="1" source="jj1MWOnxCpiDVjHV4AiB-2" target="m9WbxkBDuGPvymWc-Egg-21" edge="1">
          <mxGeometry relative="1" as="geometry">
            <mxPoint x="270" y="145" as="targetPoint" />
            <Array as="points">
              <mxPoint x="174" y="175" />
            </Array>
          </mxGeometry>
        </mxCell>
        <mxCell id="m9WbxkBDuGPvymWc-Egg-80" style="edgeStyle=orthogonalEdgeStyle;rounded=0;orthogonalLoop=1;jettySize=auto;html=1;exitX=1;exitY=0.5;exitDx=0;exitDy=0;entryX=0;entryY=0.5;entryDx=0;entryDy=0;" parent="1" source="jj1MWOnxCpiDVjHV4AiB-2" target="m9WbxkBDuGPvymWc-Egg-17" edge="1">
          <mxGeometry relative="1" as="geometry">
            <Array as="points">
              <mxPoint x="190" y="145" />
            </Array>
          </mxGeometry>
        </mxCell>
        <mxCell id="jj1MWOnxCpiDVjHV4AiB-2" value="sucursal&amp;nbsp;" style="ellipse;whiteSpace=wrap;html=1;" parent="1" vertex="1">
          <mxGeometry x="105" width="110" height="60" as="geometry" />
        </mxCell>
        <mxCell id="JGVSWITVULdOfcVE93Ly-97" style="edgeStyle=orthogonalEdgeStyle;rounded=0;orthogonalLoop=1;jettySize=auto;html=1;exitX=1;exitY=0.5;exitDx=0;exitDy=0;entryX=0.043;entryY=0.579;entryDx=0;entryDy=0;entryPerimeter=0;" edge="1" parent="1" source="jj1MWOnxCpiDVjHV4AiB-4" target="JGVSWITVULdOfcVE93Ly-99">
          <mxGeometry relative="1" as="geometry">
            <mxPoint x="-160" y="675.9090909090905" as="targetPoint" />
            <Array as="points">
              <mxPoint x="-250" y="720" />
              <mxPoint x="-185" y="720" />
            </Array>
          </mxGeometry>
        </mxCell>
        <mxCell id="JGVSWITVULdOfcVE93Ly-138" style="edgeStyle=orthogonalEdgeStyle;rounded=0;orthogonalLoop=1;jettySize=auto;html=1;exitX=0;exitY=0;exitDx=0;exitDy=0;" edge="1" parent="1" source="jj1MWOnxCpiDVjHV4AiB-4" target="JGVSWITVULdOfcVE93Ly-135">
          <mxGeometry relative="1" as="geometry" />
        </mxCell>
        <mxCell id="JGVSWITVULdOfcVE93Ly-139" style="edgeStyle=orthogonalEdgeStyle;rounded=0;orthogonalLoop=1;jettySize=auto;html=1;exitX=0;exitY=0.5;exitDx=0;exitDy=0;" edge="1" parent="1" source="jj1MWOnxCpiDVjHV4AiB-4" target="JGVSWITVULdOfcVE93Ly-136">
          <mxGeometry relative="1" as="geometry" />
        </mxCell>
        <mxCell id="jj1MWOnxCpiDVjHV4AiB-4" value="Atraco" style="ellipse;whiteSpace=wrap;html=1;" parent="1" vertex="1">
          <mxGeometry x="-370" y="635.25" width="120" height="80" as="geometry" />
        </mxCell>
        <mxCell id="jj1MWOnxCpiDVjHV4AiB-10" value="1/N" style="rhombus;whiteSpace=wrap;html=1;" parent="1" vertex="1">
          <mxGeometry x="65" y="225" width="140" height="50" as="geometry" />
        </mxCell>
        <mxCell id="jj1MWOnxCpiDVjHV4AiB-38" style="edgeStyle=orthogonalEdgeStyle;rounded=0;orthogonalLoop=1;jettySize=auto;html=1;entryX=0.5;entryY=0;entryDx=0;entryDy=0;" parent="1" source="jj1MWOnxCpiDVjHV4AiB-10" target="jj1MWOnxCpiDVjHV4AiB-4" edge="1">
          <mxGeometry relative="1" as="geometry">
            <Array as="points">
              <mxPoint x="135" y="380" />
              <mxPoint x="-200" y="380" />
              <mxPoint x="-200" y="610" />
              <mxPoint x="-310" y="610" />
            </Array>
          </mxGeometry>
        </mxCell>
        <mxCell id="m9WbxkBDuGPvymWc-Egg-8" style="edgeStyle=orthogonalEdgeStyle;rounded=0;orthogonalLoop=1;jettySize=auto;html=1;" parent="1" source="m9WbxkBDuGPvymWc-Egg-6" edge="1">
          <mxGeometry relative="1" as="geometry">
            <mxPoint x="-450" y="40" as="targetPoint" />
            <Array as="points">
              <mxPoint x="-419" y="50" />
              <mxPoint x="-419" y="41" />
            </Array>
          </mxGeometry>
        </mxCell>
        <mxCell id="m9WbxkBDuGPvymWc-Egg-10" style="edgeStyle=orthogonalEdgeStyle;rounded=0;orthogonalLoop=1;jettySize=auto;html=1;entryX=0;entryY=0.5;entryDx=0;entryDy=0;" parent="1" source="m9WbxkBDuGPvymWc-Egg-6" target="m9WbxkBDuGPvymWc-Egg-9" edge="1">
          <mxGeometry relative="1" as="geometry" />
        </mxCell>
        <mxCell id="m9WbxkBDuGPvymWc-Egg-73" style="edgeStyle=orthogonalEdgeStyle;rounded=0;orthogonalLoop=1;jettySize=auto;html=1;exitX=0;exitY=0.5;exitDx=0;exitDy=0;" parent="1" source="m9WbxkBDuGPvymWc-Egg-6" target="m9WbxkBDuGPvymWc-Egg-4" edge="1">
          <mxGeometry relative="1" as="geometry">
            <Array as="points">
              <mxPoint x="-410" y="80" />
              <mxPoint x="-410" y="70" />
            </Array>
          </mxGeometry>
        </mxCell>
        <mxCell id="m9WbxkBDuGPvymWc-Egg-6" value="Entidad Bancaria" style="ellipse;whiteSpace=wrap;html=1;" parent="1" vertex="1">
          <mxGeometry x="-390" y="40" width="120" height="80" as="geometry" />
        </mxCell>
        <mxCell id="m9WbxkBDuGPvymWc-Egg-9" value="1/N" style="rhombus;whiteSpace=wrap;html=1;" parent="1" vertex="1">
          <mxGeometry x="-140" y="55" width="130" height="50" as="geometry" />
        </mxCell>
        <mxCell id="m9WbxkBDuGPvymWc-Egg-22" value="" style="group" parent="1" vertex="1" connectable="0">
          <mxGeometry x="280" y="70" width="210" height="115" as="geometry" />
        </mxCell>
        <mxCell id="m9WbxkBDuGPvymWc-Egg-14" value="" style="ellipse;whiteSpace=wrap;html=1;strokeWidth=2;fillWeight=2;hachureGap=8;fillColor=#d5e8d4;fillStyle=dots;sketch=1;strokeColor=#82b366;" parent="m9WbxkBDuGPvymWc-Egg-22" vertex="1">
          <mxGeometry y="5" width="20" height="20" as="geometry" />
        </mxCell>
        <mxCell id="m9WbxkBDuGPvymWc-Egg-15" value="&lt;div&gt;numerio_empleados&lt;/div&gt;" style="text;html=1;align=center;verticalAlign=middle;whiteSpace=wrap;rounded=0;" parent="m9WbxkBDuGPvymWc-Egg-22" vertex="1">
          <mxGeometry x="20" y="35" width="120" height="30" as="geometry" />
        </mxCell>
        <mxCell id="m9WbxkBDuGPvymWc-Egg-16" value="" style="ellipse;shape=doubleEllipse;whiteSpace=wrap;html=1;aspect=fixed;" parent="m9WbxkBDuGPvymWc-Egg-22" vertex="1">
          <mxGeometry y="35" width="20" height="20" as="geometry" />
        </mxCell>
        <mxCell id="m9WbxkBDuGPvymWc-Egg-17" value="" style="ellipse;shape=doubleEllipse;whiteSpace=wrap;html=1;aspect=fixed;" parent="m9WbxkBDuGPvymWc-Egg-22" vertex="1">
          <mxGeometry y="65" width="20" height="20" as="geometry" />
        </mxCell>
        <mxCell id="m9WbxkBDuGPvymWc-Egg-18" value="Codigo_Sucursal&amp;nbsp;" style="text;html=1;align=center;verticalAlign=middle;whiteSpace=wrap;rounded=0;" parent="m9WbxkBDuGPvymWc-Egg-22" vertex="1">
          <mxGeometry x="50" width="60" height="30" as="geometry" />
        </mxCell>
        <mxCell id="m9WbxkBDuGPvymWc-Egg-19" value="entidad_BancariaCodigo_Entidad&amp;nbsp;&amp;nbsp;" style="text;html=1;align=center;verticalAlign=middle;whiteSpace=wrap;rounded=0;" parent="m9WbxkBDuGPvymWc-Egg-22" vertex="1">
          <mxGeometry x="30" y="95" width="180" height="20" as="geometry" />
        </mxCell>
        <mxCell id="m9WbxkBDuGPvymWc-Egg-20" value="domicilio&amp;nbsp;" style="text;html=1;align=center;verticalAlign=middle;whiteSpace=wrap;rounded=0;" parent="m9WbxkBDuGPvymWc-Egg-22" vertex="1">
          <mxGeometry x="30" y="60" width="60" height="30" as="geometry" />
        </mxCell>
        <mxCell id="m9WbxkBDuGPvymWc-Egg-21" value="" style="ellipse;whiteSpace=wrap;html=1;strokeWidth=2;fillWeight=2;hachureGap=8;fillColor=#f8cecc;fillStyle=dots;sketch=1;strokeColor=#b85450;" parent="m9WbxkBDuGPvymWc-Egg-22" vertex="1">
          <mxGeometry y="95" width="20" height="20" as="geometry" />
        </mxCell>
        <mxCell id="m9WbxkBDuGPvymWc-Egg-52" style="edgeStyle=orthogonalEdgeStyle;rounded=0;orthogonalLoop=1;jettySize=auto;html=1;exitX=1;exitY=0.5;exitDx=0;exitDy=0;entryX=0;entryY=0.5;entryDx=0;entryDy=0;" parent="1" source="m9WbxkBDuGPvymWc-Egg-27" target="m9WbxkBDuGPvymWc-Egg-40" edge="1">
          <mxGeometry relative="1" as="geometry" />
        </mxCell>
        <mxCell id="m9WbxkBDuGPvymWc-Egg-53" style="edgeStyle=orthogonalEdgeStyle;rounded=0;orthogonalLoop=1;jettySize=auto;html=1;exitX=0;exitY=0;exitDx=0;exitDy=0;" parent="1" source="m9WbxkBDuGPvymWc-Egg-27" edge="1">
          <mxGeometry relative="1" as="geometry">
            <mxPoint x="-520" y="230" as="targetPoint" />
            <Array as="points">
              <mxPoint x="-372" y="200" />
              <mxPoint x="-450" y="200" />
              <mxPoint x="-450" y="230" />
            </Array>
          </mxGeometry>
        </mxCell>
        <mxCell id="m9WbxkBDuGPvymWc-Egg-54" style="edgeStyle=orthogonalEdgeStyle;rounded=0;orthogonalLoop=1;jettySize=auto;html=1;exitX=0.5;exitY=1;exitDx=0;exitDy=0;" parent="1" source="m9WbxkBDuGPvymWc-Egg-27" edge="1">
          <mxGeometry relative="1" as="geometry">
            <mxPoint x="-330" y="360" as="targetPoint" />
          </mxGeometry>
        </mxCell>
        <mxCell id="m9WbxkBDuGPvymWc-Egg-82" style="edgeStyle=orthogonalEdgeStyle;rounded=0;orthogonalLoop=1;jettySize=auto;html=1;exitX=0;exitY=0.5;exitDx=0;exitDy=0;" parent="1" source="m9WbxkBDuGPvymWc-Egg-27" target="m9WbxkBDuGPvymWc-Egg-31" edge="1">
          <mxGeometry relative="1" as="geometry">
            <Array as="points">
              <mxPoint x="-390" y="240" />
              <mxPoint x="-465" y="240" />
              <mxPoint x="-465" y="260" />
            </Array>
          </mxGeometry>
        </mxCell>
        <mxCell id="m9WbxkBDuGPvymWc-Egg-83" style="edgeStyle=orthogonalEdgeStyle;rounded=0;orthogonalLoop=1;jettySize=auto;html=1;exitX=0;exitY=0.5;exitDx=0;exitDy=0;entryX=1;entryY=0.75;entryDx=0;entryDy=0;" parent="1" source="m9WbxkBDuGPvymWc-Egg-27" target="m9WbxkBDuGPvymWc-Egg-50" edge="1">
          <mxGeometry relative="1" as="geometry">
            <Array as="points">
              <mxPoint x="-390" y="290" />
            </Array>
          </mxGeometry>
        </mxCell>
        <mxCell id="m9WbxkBDuGPvymWc-Egg-27" value="ContrataciÃ³n" style="ellipse;whiteSpace=wrap;html=1;" parent="1" vertex="1">
          <mxGeometry x="-390" y="190" width="120" height="80" as="geometry" />
        </mxCell>
        <mxCell id="m9WbxkBDuGPvymWc-Egg-40" value="1/N" style="rhombus;whiteSpace=wrap;html=1;rotation=0;" parent="1" vertex="1">
          <mxGeometry x="-170" y="202.5" width="120" height="55" as="geometry" />
        </mxCell>
        <mxCell id="m9WbxkBDuGPvymWc-Egg-57" style="edgeStyle=orthogonalEdgeStyle;rounded=0;orthogonalLoop=1;jettySize=auto;html=1;exitX=0.5;exitY=0;exitDx=0;exitDy=0;entryX=0.5;entryY=1;entryDx=0;entryDy=0;" parent="1" source="m9WbxkBDuGPvymWc-Egg-55" target="m9WbxkBDuGPvymWc-Egg-56" edge="1">
          <mxGeometry relative="1" as="geometry" />
        </mxCell>
        <mxCell id="m9WbxkBDuGPvymWc-Egg-72" style="edgeStyle=orthogonalEdgeStyle;rounded=0;orthogonalLoop=1;jettySize=auto;html=1;exitX=0;exitY=0.5;exitDx=0;exitDy=0;" parent="1" source="m9WbxkBDuGPvymWc-Egg-55" edge="1">
          <mxGeometry relative="1" as="geometry">
            <mxPoint x="-480" y="530" as="targetPoint" />
          </mxGeometry>
        </mxCell>
        <mxCell id="m9WbxkBDuGPvymWc-Egg-86" style="edgeStyle=orthogonalEdgeStyle;rounded=0;orthogonalLoop=1;jettySize=auto;html=1;exitX=0;exitY=1;exitDx=0;exitDy=0;" parent="1" source="m9WbxkBDuGPvymWc-Egg-55" target="m9WbxkBDuGPvymWc-Egg-71" edge="1">
          <mxGeometry relative="1" as="geometry" />
        </mxCell>
        <mxCell id="m9WbxkBDuGPvymWc-Egg-55" value="Vigilagiante" style="ellipse;whiteSpace=wrap;html=1;" parent="1" vertex="1">
          <mxGeometry x="-390" y="504.5" width="120" height="80" as="geometry" />
        </mxCell>
        <mxCell id="m9WbxkBDuGPvymWc-Egg-56" value="1/N" style="rhombus;whiteSpace=wrap;html=1;rotation=0;" parent="1" vertex="1">
          <mxGeometry x="-390" y="360" width="120" height="55" as="geometry" />
        </mxCell>
        <mxCell id="m9WbxkBDuGPvymWc-Egg-66" value="" style="group" parent="1" vertex="1" connectable="0">
          <mxGeometry x="-570" y="25" width="140" height="60" as="geometry" />
        </mxCell>
        <mxCell id="jj1MWOnxCpiDVjHV4AiB-41" value="" style="ellipse;whiteSpace=wrap;html=1;strokeWidth=2;fillWeight=2;hachureGap=8;fillColor=#d5e8d4;fillStyle=dots;sketch=1;strokeColor=#82b366;" parent="m9WbxkBDuGPvymWc-Egg-66" vertex="1">
          <mxGeometry y="5" width="20" height="20" as="geometry" />
        </mxCell>
        <mxCell id="m9WbxkBDuGPvymWc-Egg-2" value="Entidad_Bancaria" style="text;html=1;align=center;verticalAlign=middle;whiteSpace=wrap;rounded=0;" parent="m9WbxkBDuGPvymWc-Egg-66" vertex="1">
          <mxGeometry x="40" width="60" height="30" as="geometry" />
        </mxCell>
        <mxCell id="m9WbxkBDuGPvymWc-Egg-3" value="" style="ellipse;shape=doubleEllipse;whiteSpace=wrap;html=1;aspect=fixed;" parent="m9WbxkBDuGPvymWc-Egg-66" vertex="1">
          <mxGeometry y="30" width="20" height="20" as="geometry" />
        </mxCell>
        <mxCell id="m9WbxkBDuGPvymWc-Egg-4" value="Domicilio _ central" style="text;html=1;align=center;verticalAlign=middle;resizable=0;points=[];autosize=1;strokeColor=none;fillColor=none;" parent="m9WbxkBDuGPvymWc-Egg-66" vertex="1">
          <mxGeometry x="20" y="30" width="120" height="30" as="geometry" />
        </mxCell>
        <mxCell id="m9WbxkBDuGPvymWc-Egg-67" value="" style="group" parent="1" vertex="1" connectable="0">
          <mxGeometry x="-600" y="514.5" width="140" height="60" as="geometry" />
        </mxCell>
        <mxCell id="m9WbxkBDuGPvymWc-Egg-68" value="" style="ellipse;whiteSpace=wrap;html=1;strokeWidth=2;fillWeight=2;hachureGap=8;fillColor=#d5e8d4;fillStyle=dots;sketch=1;strokeColor=#82b366;" parent="m9WbxkBDuGPvymWc-Egg-67" vertex="1">
          <mxGeometry y="5" width="20" height="20" as="geometry" />
        </mxCell>
        <mxCell id="m9WbxkBDuGPvymWc-Egg-69" value="Codigo_Vigilante" style="text;html=1;align=center;verticalAlign=middle;whiteSpace=wrap;rounded=0;" parent="m9WbxkBDuGPvymWc-Egg-67" vertex="1">
          <mxGeometry x="40" width="60" height="30" as="geometry" />
        </mxCell>
        <mxCell id="m9WbxkBDuGPvymWc-Egg-70" value="" style="ellipse;shape=doubleEllipse;whiteSpace=wrap;html=1;aspect=fixed;" parent="m9WbxkBDuGPvymWc-Egg-67" vertex="1">
          <mxGeometry y="30" width="20" height="20" as="geometry" />
        </mxCell>
        <mxCell id="m9WbxkBDuGPvymWc-Egg-71" value="Edad" style="text;html=1;align=center;verticalAlign=middle;resizable=0;points=[];autosize=1;strokeColor=none;fillColor=none;" parent="m9WbxkBDuGPvymWc-Egg-67" vertex="1">
          <mxGeometry x="55" y="30" width="50" height="30" as="geometry" />
        </mxCell>
        <mxCell id="m9WbxkBDuGPvymWc-Egg-85" style="edgeStyle=orthogonalEdgeStyle;rounded=0;orthogonalLoop=1;jettySize=auto;html=1;exitX=0;exitY=1;exitDx=0;exitDy=0;entryX=0.922;entryY=0.85;entryDx=0;entryDy=0;entryPerimeter=0;" parent="1" source="m9WbxkBDuGPvymWc-Egg-27" target="m9WbxkBDuGPvymWc-Egg-35" edge="1">
          <mxGeometry relative="1" as="geometry">
            <Array as="points">
              <mxPoint x="-372" y="320" />
              <mxPoint x="-454" y="320" />
            </Array>
          </mxGeometry>
        </mxCell>
        <mxCell id="m9WbxkBDuGPvymWc-Egg-87" value="1/N" style="rhombus;whiteSpace=wrap;html=1;" parent="1" vertex="1">
          <mxGeometry x="180" y="650.25" width="115" height="50" as="geometry" />
        </mxCell>
        <mxCell id="JGVSWITVULdOfcVE93Ly-6" style="edgeStyle=orthogonalEdgeStyle;rounded=0;orthogonalLoop=1;jettySize=auto;html=1;exitX=0;exitY=0;exitDx=0;exitDy=0;entryX=0;entryY=0.5;entryDx=0;entryDy=0;" edge="1" parent="1" source="m9WbxkBDuGPvymWc-Egg-89" target="JGVSWITVULdOfcVE93Ly-2">
          <mxGeometry relative="1" as="geometry">
            <mxPoint x="20" y="780" as="targetPoint" />
          </mxGeometry>
        </mxCell>
        <mxCell id="JGVSWITVULdOfcVE93Ly-98" style="edgeStyle=orthogonalEdgeStyle;rounded=0;orthogonalLoop=1;jettySize=auto;html=1;exitX=0;exitY=0.5;exitDx=0;exitDy=0;entryX=1.002;entryY=0.47;entryDx=0;entryDy=0;entryPerimeter=0;" edge="1" parent="1" source="m9WbxkBDuGPvymWc-Egg-89" target="JGVSWITVULdOfcVE93Ly-99">
          <mxGeometry relative="1" as="geometry">
            <mxPoint x="-79.99999999999955" y="685" as="targetPoint" />
          </mxGeometry>
        </mxCell>
        <mxCell id="JGVSWITVULdOfcVE93Ly-100" style="edgeStyle=orthogonalEdgeStyle;rounded=0;orthogonalLoop=1;jettySize=auto;html=1;exitX=0.5;exitY=0;exitDx=0;exitDy=0;entryX=0;entryY=1;entryDx=0;entryDy=0;" edge="1" parent="1" source="m9WbxkBDuGPvymWc-Egg-89" target="JGVSWITVULdOfcVE93Ly-4">
          <mxGeometry relative="1" as="geometry">
            <Array as="points">
              <mxPoint x="53" y="572" />
            </Array>
          </mxGeometry>
        </mxCell>
        <mxCell id="JGVSWITVULdOfcVE93Ly-102" style="edgeStyle=orthogonalEdgeStyle;rounded=0;orthogonalLoop=1;jettySize=auto;html=1;exitX=1;exitY=0.5;exitDx=0;exitDy=0;entryX=0;entryY=0.5;entryDx=0;entryDy=0;" edge="1" parent="1" source="m9WbxkBDuGPvymWc-Egg-89" target="m9WbxkBDuGPvymWc-Egg-87">
          <mxGeometry relative="1" as="geometry" />
        </mxCell>
        <mxCell id="m9WbxkBDuGPvymWc-Egg-89" value="Persona detenida" style="ellipse;whiteSpace=wrap;html=1;" parent="1" vertex="1">
          <mxGeometry y="650" width="105" height="69.5" as="geometry" />
        </mxCell>
        <mxCell id="JGVSWITVULdOfcVE93Ly-1" value="" style="group" vertex="1" connectable="0" parent="1">
          <mxGeometry x="70" y="525" width="140" height="60" as="geometry" />
        </mxCell>
        <mxCell id="JGVSWITVULdOfcVE93Ly-2" value="" style="ellipse;whiteSpace=wrap;html=1;strokeWidth=2;fillWeight=2;hachureGap=8;fillColor=#d5e8d4;fillStyle=dots;sketch=1;strokeColor=#82b366;" vertex="1" parent="JGVSWITVULdOfcVE93Ly-1">
          <mxGeometry y="5" width="20" height="20" as="geometry" />
        </mxCell>
        <mxCell id="JGVSWITVULdOfcVE93Ly-3" value="Codigo_persona" style="text;html=1;align=center;verticalAlign=middle;whiteSpace=wrap;rounded=0;" vertex="1" parent="JGVSWITVULdOfcVE93Ly-1">
          <mxGeometry x="40" width="60" height="30" as="geometry" />
        </mxCell>
        <mxCell id="JGVSWITVULdOfcVE93Ly-4" value="" style="ellipse;shape=doubleEllipse;whiteSpace=wrap;html=1;aspect=fixed;" vertex="1" parent="JGVSWITVULdOfcVE93Ly-1">
          <mxGeometry y="30" width="20" height="20" as="geometry" />
        </mxCell>
        <mxCell id="JGVSWITVULdOfcVE93Ly-5" value="Nombre completo" style="text;html=1;align=center;verticalAlign=middle;resizable=0;points=[];autosize=1;strokeColor=none;fillColor=none;" vertex="1" parent="JGVSWITVULdOfcVE93Ly-1">
          <mxGeometry x="20" y="30" width="120" height="30" as="geometry" />
        </mxCell>
        <mxCell id="JGVSWITVULdOfcVE93Ly-8" value="1/N" style="rhombus;whiteSpace=wrap;html=1;" vertex="1" parent="1">
          <mxGeometry x="390" y="514.5" width="125" height="55.75" as="geometry" />
        </mxCell>
        <mxCell id="JGVSWITVULdOfcVE93Ly-103" style="edgeStyle=orthogonalEdgeStyle;rounded=0;orthogonalLoop=1;jettySize=auto;html=1;exitX=0;exitY=0.5;exitDx=0;exitDy=0;entryX=1;entryY=0.5;entryDx=0;entryDy=0;" edge="1" parent="1" source="JGVSWITVULdOfcVE93Ly-10" target="m9WbxkBDuGPvymWc-Egg-87">
          <mxGeometry relative="1" as="geometry" />
        </mxCell>
        <mxCell id="JGVSWITVULdOfcVE93Ly-104" style="edgeStyle=orthogonalEdgeStyle;rounded=0;orthogonalLoop=1;jettySize=auto;html=1;exitX=1;exitY=0.5;exitDx=0;exitDy=0;entryX=0;entryY=0.5;entryDx=0;entryDy=0;" edge="1" parent="1" source="JGVSWITVULdOfcVE93Ly-10" target="JGVSWITVULdOfcVE93Ly-25">
          <mxGeometry relative="1" as="geometry">
            <Array as="points">
              <mxPoint x="515" y="614" />
            </Array>
          </mxGeometry>
        </mxCell>
        <mxCell id="JGVSWITVULdOfcVE93Ly-105" style="edgeStyle=orthogonalEdgeStyle;rounded=0;orthogonalLoop=1;jettySize=auto;html=1;exitX=1;exitY=0.5;exitDx=0;exitDy=0;entryX=0;entryY=1;entryDx=0;entryDy=0;" edge="1" parent="1" source="JGVSWITVULdOfcVE93Ly-10" target="JGVSWITVULdOfcVE93Ly-28">
          <mxGeometry relative="1" as="geometry" />
        </mxCell>
        <mxCell id="JGVSWITVULdOfcVE93Ly-106" style="edgeStyle=orthogonalEdgeStyle;rounded=0;orthogonalLoop=1;jettySize=auto;html=1;exitX=1;exitY=0.5;exitDx=0;exitDy=0;entryX=0;entryY=0.5;entryDx=0;entryDy=0;" edge="1" parent="1" source="JGVSWITVULdOfcVE93Ly-10" target="JGVSWITVULdOfcVE93Ly-30">
          <mxGeometry relative="1" as="geometry" />
        </mxCell>
        <mxCell id="JGVSWITVULdOfcVE93Ly-107" style="edgeStyle=orthogonalEdgeStyle;rounded=0;orthogonalLoop=1;jettySize=auto;html=1;exitX=1;exitY=0.5;exitDx=0;exitDy=0;entryX=0;entryY=0.5;entryDx=0;entryDy=0;" edge="1" parent="1" source="JGVSWITVULdOfcVE93Ly-10" target="JGVSWITVULdOfcVE93Ly-31">
          <mxGeometry relative="1" as="geometry" />
        </mxCell>
        <mxCell id="JGVSWITVULdOfcVE93Ly-108" style="edgeStyle=orthogonalEdgeStyle;rounded=0;orthogonalLoop=1;jettySize=auto;html=1;exitX=1;exitY=0.5;exitDx=0;exitDy=0;entryX=0;entryY=0.5;entryDx=0;entryDy=0;" edge="1" parent="1" source="JGVSWITVULdOfcVE93Ly-10" target="JGVSWITVULdOfcVE93Ly-33">
          <mxGeometry relative="1" as="geometry">
            <Array as="points">
              <mxPoint x="520" y="675" />
              <mxPoint x="520" y="734" />
            </Array>
          </mxGeometry>
        </mxCell>
        <mxCell id="JGVSWITVULdOfcVE93Ly-109" style="edgeStyle=orthogonalEdgeStyle;rounded=0;orthogonalLoop=1;jettySize=auto;html=1;entryX=0.5;entryY=1;entryDx=0;entryDy=0;" edge="1" parent="1" target="JGVSWITVULdOfcVE93Ly-8">
          <mxGeometry relative="1" as="geometry">
            <mxPoint x="450" y="620" as="sourcePoint" />
          </mxGeometry>
        </mxCell>
        <mxCell id="JGVSWITVULdOfcVE93Ly-114" style="edgeStyle=orthogonalEdgeStyle;rounded=0;orthogonalLoop=1;jettySize=auto;html=1;exitX=0.5;exitY=1;exitDx=0;exitDy=0;entryX=0.5;entryY=0;entryDx=0;entryDy=0;" edge="1" parent="1" source="JGVSWITVULdOfcVE93Ly-10" target="JGVSWITVULdOfcVE93Ly-45">
          <mxGeometry relative="1" as="geometry" />
        </mxCell>
        <mxCell id="JGVSWITVULdOfcVE93Ly-10" value="Caso" style="ellipse;whiteSpace=wrap;html=1;" vertex="1" parent="1">
          <mxGeometry x="390" y="624.75" width="125" height="101" as="geometry" />
        </mxCell>
        <mxCell id="m9WbxkBDuGPvymWc-Egg-31" value="Con_Arma" style="text;html=1;align=center;verticalAlign=middle;whiteSpace=wrap;rounded=0;container=0;" parent="1" vertex="1">
          <mxGeometry x="-630" y="245" width="90" height="30" as="geometry" />
        </mxCell>
        <mxCell id="m9WbxkBDuGPvymWc-Egg-32" value="" style="ellipse;shape=doubleEllipse;whiteSpace=wrap;html=1;aspect=fixed;container=0;" parent="1" vertex="1">
          <mxGeometry x="-650" y="245" width="20" height="20" as="geometry" />
        </mxCell>
        <mxCell id="m9WbxkBDuGPvymWc-Egg-34" value="Fecha" style="text;html=1;align=center;verticalAlign=middle;whiteSpace=wrap;rounded=0;container=0;" parent="1" vertex="1">
          <mxGeometry x="-610" y="210" width="60" height="30" as="geometry" />
        </mxCell>
        <mxCell id="m9WbxkBDuGPvymWc-Egg-35" value="VigilanteCodigo_Vigilante" style="text;html=1;align=center;verticalAlign=middle;whiteSpace=wrap;rounded=0;container=0;" parent="1" vertex="1">
          <mxGeometry x="-620" y="305" width="180" height="20" as="geometry" />
        </mxCell>
        <mxCell id="m9WbxkBDuGPvymWc-Egg-37" value="" style="ellipse;whiteSpace=wrap;html=1;strokeWidth=2;fillWeight=2;hachureGap=8;fillColor=#f8cecc;fillStyle=dots;sketch=1;strokeColor=#b85450;container=0;" parent="1" vertex="1">
          <mxGeometry x="-650" y="305" width="20" height="20" as="geometry" />
        </mxCell>
        <mxCell id="m9WbxkBDuGPvymWc-Egg-49" value="" style="ellipse;whiteSpace=wrap;html=1;strokeWidth=2;fillWeight=2;hachureGap=8;fillColor=#f8cecc;fillStyle=dots;sketch=1;strokeColor=#b85450;container=0;" parent="1" vertex="1">
          <mxGeometry x="-650" y="275" width="20" height="20" as="geometry" />
        </mxCell>
        <mxCell id="m9WbxkBDuGPvymWc-Egg-50" value="SucursalCodigo_Sucursal" style="text;html=1;align=center;verticalAlign=middle;whiteSpace=wrap;rounded=0;container=0;" parent="1" vertex="1">
          <mxGeometry x="-620" y="275" width="180" height="20" as="geometry" />
        </mxCell>
        <mxCell id="JGVSWITVULdOfcVE93Ly-45" value="1/N" style="rhombus;whiteSpace=wrap;html=1;" vertex="1" parent="1">
          <mxGeometry x="380" y="770" width="130" height="80" as="geometry" />
        </mxCell>
        <mxCell id="JGVSWITVULdOfcVE93Ly-49" value="1/N" style="html=1;whiteSpace=wrap;aspect=fixed;shape=isoRectangle;" vertex="1" parent="1">
          <mxGeometry x="-50" y="1075.5" width="115" height="69" as="geometry" />
        </mxCell>
        <mxCell id="JGVSWITVULdOfcVE93Ly-65" style="edgeStyle=orthogonalEdgeStyle;rounded=0;orthogonalLoop=1;jettySize=auto;html=1;entryX=0;entryY=0.5;entryDx=0;entryDy=0;exitX=1;exitY=1;exitDx=0;exitDy=0;" edge="1" parent="1" source="JGVSWITVULdOfcVE93Ly-50" target="JGVSWITVULdOfcVE93Ly-62">
          <mxGeometry relative="1" as="geometry">
            <mxPoint x="110" y="910" as="sourcePoint" />
          </mxGeometry>
        </mxCell>
        <mxCell id="JGVSWITVULdOfcVE93Ly-66" style="edgeStyle=orthogonalEdgeStyle;rounded=0;orthogonalLoop=1;jettySize=auto;html=1;exitX=1;exitY=0.5;exitDx=0;exitDy=0;entryX=0;entryY=0.5;entryDx=0;entryDy=0;" edge="1" parent="1" source="JGVSWITVULdOfcVE93Ly-50" target="JGVSWITVULdOfcVE93Ly-61">
          <mxGeometry relative="1" as="geometry" />
        </mxCell>
        <mxCell id="JGVSWITVULdOfcVE93Ly-115" style="edgeStyle=orthogonalEdgeStyle;rounded=0;orthogonalLoop=1;jettySize=auto;html=1;exitX=1;exitY=0;exitDx=0;exitDy=0;entryX=0;entryY=0.5;entryDx=0;entryDy=0;" edge="1" parent="1" source="JGVSWITVULdOfcVE93Ly-50" target="JGVSWITVULdOfcVE93Ly-45">
          <mxGeometry relative="1" as="geometry">
            <Array as="points">
              <mxPoint x="120" y="912" />
              <mxPoint x="120" y="870" />
              <mxPoint x="170" y="870" />
              <mxPoint x="170" y="810" />
            </Array>
          </mxGeometry>
        </mxCell>
        <mxCell id="JGVSWITVULdOfcVE93Ly-118" style="edgeStyle=orthogonalEdgeStyle;rounded=0;orthogonalLoop=1;jettySize=auto;html=1;exitX=0.5;exitY=0;exitDx=0;exitDy=0;" edge="1" parent="1" source="JGVSWITVULdOfcVE93Ly-50">
          <mxGeometry relative="1" as="geometry">
            <mxPoint x="44" y="820.0000000000002" as="targetPoint" />
          </mxGeometry>
        </mxCell>
        <mxCell id="JGVSWITVULdOfcVE93Ly-50" value="PertenenciaBanda" style="ellipse;whiteSpace=wrap;html=1;" vertex="1" parent="1">
          <mxGeometry x="-21.25" y="900" width="122.5" height="80" as="geometry" />
        </mxCell>
        <mxCell id="JGVSWITVULdOfcVE93Ly-56" value="" style="group" vertex="1" connectable="0" parent="1">
          <mxGeometry x="-630" y="1080" width="140" height="60" as="geometry" />
        </mxCell>
        <mxCell id="JGVSWITVULdOfcVE93Ly-52" value="" style="ellipse;whiteSpace=wrap;html=1;strokeWidth=2;fillWeight=2;hachureGap=8;fillColor=#d5e8d4;fillStyle=dots;sketch=1;strokeColor=#82b366;" vertex="1" parent="JGVSWITVULdOfcVE93Ly-56">
          <mxGeometry y="5" width="20" height="20" as="geometry" />
        </mxCell>
        <mxCell id="JGVSWITVULdOfcVE93Ly-53" value="" style="ellipse;shape=doubleEllipse;whiteSpace=wrap;html=1;aspect=fixed;container=0;" vertex="1" parent="JGVSWITVULdOfcVE93Ly-56">
          <mxGeometry y="35" width="20" height="20" as="geometry" />
        </mxCell>
        <mxCell id="JGVSWITVULdOfcVE93Ly-54" value="Numero_Banda" style="text;html=1;align=center;verticalAlign=middle;resizable=0;points=[];autosize=1;strokeColor=none;fillColor=none;" vertex="1" parent="JGVSWITVULdOfcVE93Ly-56">
          <mxGeometry x="20" width="110" height="30" as="geometry" />
        </mxCell>
        <mxCell id="JGVSWITVULdOfcVE93Ly-55" value="Numero_Miembros" style="text;html=1;align=center;verticalAlign=middle;resizable=0;points=[];autosize=1;strokeColor=none;fillColor=none;" vertex="1" parent="JGVSWITVULdOfcVE93Ly-56">
          <mxGeometry x="10" y="30" width="130" height="30" as="geometry" />
        </mxCell>
        <mxCell id="JGVSWITVULdOfcVE93Ly-71" style="edgeStyle=orthogonalEdgeStyle;rounded=0;orthogonalLoop=1;jettySize=auto;html=1;exitX=0;exitY=0.5;exitDx=0;exitDy=0;" edge="1" parent="1" source="JGVSWITVULdOfcVE93Ly-69" target="JGVSWITVULdOfcVE93Ly-55">
          <mxGeometry relative="1" as="geometry" />
        </mxCell>
        <mxCell id="JGVSWITVULdOfcVE93Ly-69" value="BandaOrganizada" style="ellipse;whiteSpace=wrap;html=1;" vertex="1" parent="1">
          <mxGeometry x="-388.5" y="1080" width="117" height="80" as="geometry" />
        </mxCell>
        <mxCell id="JGVSWITVULdOfcVE93Ly-70" style="edgeStyle=orthogonalEdgeStyle;rounded=0;orthogonalLoop=1;jettySize=auto;html=1;exitX=0;exitY=0;exitDx=0;exitDy=0;entryX=1.036;entryY=0.519;entryDx=0;entryDy=0;entryPerimeter=0;" edge="1" parent="1" source="JGVSWITVULdOfcVE93Ly-69" target="JGVSWITVULdOfcVE93Ly-54">
          <mxGeometry relative="1" as="geometry" />
        </mxCell>
        <mxCell id="JGVSWITVULdOfcVE93Ly-84" value="" style="group" vertex="1" connectable="0" parent="1">
          <mxGeometry x="560" y="601.75" width="230" height="147" as="geometry" />
        </mxCell>
        <mxCell id="JGVSWITVULdOfcVE93Ly-25" value="" style="ellipse;shape=doubleEllipse;whiteSpace=wrap;html=1;aspect=fixed;container=0;" vertex="1" parent="JGVSWITVULdOfcVE93Ly-84">
          <mxGeometry y="2" width="20" height="20" as="geometry" />
        </mxCell>
        <mxCell id="JGVSWITVULdOfcVE93Ly-28" value="" style="ellipse;shape=doubleEllipse;whiteSpace=wrap;html=1;aspect=fixed;container=0;" vertex="1" parent="JGVSWITVULdOfcVE93Ly-84">
          <mxGeometry y="32" width="20" height="20" as="geometry" />
        </mxCell>
        <mxCell id="JGVSWITVULdOfcVE93Ly-30" value="" style="ellipse;shape=doubleEllipse;whiteSpace=wrap;html=1;aspect=fixed;container=0;" vertex="1" parent="JGVSWITVULdOfcVE93Ly-84">
          <mxGeometry y="62" width="20" height="20" as="geometry" />
        </mxCell>
        <mxCell id="JGVSWITVULdOfcVE93Ly-31" value="" style="ellipse;whiteSpace=wrap;html=1;strokeWidth=2;fillWeight=2;hachureGap=8;fillColor=#f8cecc;fillStyle=dots;sketch=1;strokeColor=#b85450;container=0;" vertex="1" parent="JGVSWITVULdOfcVE93Ly-84">
          <mxGeometry y="91" width="20" height="20" as="geometry" />
        </mxCell>
        <mxCell id="JGVSWITVULdOfcVE93Ly-33" value="" style="ellipse;whiteSpace=wrap;html=1;strokeWidth=2;fillWeight=2;hachureGap=8;fillColor=#f8cecc;fillStyle=dots;sketch=1;strokeColor=#b85450;container=0;" vertex="1" parent="JGVSWITVULdOfcVE93Ly-84">
          <mxGeometry y="122" width="20" height="20" as="geometry" />
        </mxCell>
        <mxCell id="JGVSWITVULdOfcVE93Ly-34" value="Fecha_delito" style="text;html=1;align=center;verticalAlign=middle;resizable=0;points=[];autosize=1;strokeColor=none;fillColor=none;" vertex="1" parent="JGVSWITVULdOfcVE93Ly-84">
          <mxGeometry x="25" width="90" height="30" as="geometry" />
        </mxCell>
        <mxCell id="JGVSWITVULdOfcVE93Ly-35" value="Condenado_Si/No" style="text;html=1;align=center;verticalAlign=middle;resizable=0;points=[];autosize=1;strokeColor=none;fillColor=none;" vertex="1" parent="JGVSWITVULdOfcVE93Ly-84">
          <mxGeometry x="20" y="32" width="120" height="30" as="geometry" />
        </mxCell>
        <mxCell id="JGVSWITVULdOfcVE93Ly-36" value="Tiempo_Carcel" style="text;html=1;align=center;verticalAlign=middle;resizable=0;points=[];autosize=1;strokeColor=none;fillColor=none;" vertex="1" parent="JGVSWITVULdOfcVE93Ly-84">
          <mxGeometry x="25" y="62" width="100" height="30" as="geometry" />
        </mxCell>
        <mxCell id="JGVSWITVULdOfcVE93Ly-37" value="JuezClave-juez" style="text;html=1;align=center;verticalAlign=middle;resizable=0;points=[];autosize=1;strokeColor=none;fillColor=none;" vertex="1" parent="JGVSWITVULdOfcVE93Ly-84">
          <mxGeometry x="25" y="91" width="110" height="30" as="geometry" />
        </mxCell>
        <mxCell id="JGVSWITVULdOfcVE93Ly-38" value="PersonaDetenidaCodigo_Persona" style="text;html=1;align=center;verticalAlign=middle;resizable=0;points=[];autosize=1;strokeColor=none;fillColor=none;" vertex="1" parent="JGVSWITVULdOfcVE93Ly-84">
          <mxGeometry x="20" y="117" width="210" height="30" as="geometry" />
        </mxCell>
        <mxCell id="JGVSWITVULdOfcVE93Ly-99" value="1/N" style="html=1;whiteSpace=wrap;aspect=fixed;shape=isoRectangle;" vertex="1" parent="1">
          <mxGeometry x="-190" y="745.75" width="116.67" height="70" as="geometry" />
        </mxCell>
        <mxCell id="JGVSWITVULdOfcVE93Ly-112" style="edgeStyle=orthogonalEdgeStyle;rounded=0;orthogonalLoop=1;jettySize=auto;html=1;exitX=0.5;exitY=1;exitDx=0;exitDy=0;" edge="1" parent="1" source="JGVSWITVULdOfcVE93Ly-111" target="JGVSWITVULdOfcVE93Ly-8">
          <mxGeometry relative="1" as="geometry" />
        </mxCell>
        <mxCell id="JGVSWITVULdOfcVE93Ly-127" style="edgeStyle=orthogonalEdgeStyle;rounded=0;orthogonalLoop=1;jettySize=auto;html=1;exitX=1;exitY=0;exitDx=0;exitDy=0;entryX=0;entryY=0.5;entryDx=0;entryDy=0;" edge="1" parent="1" source="JGVSWITVULdOfcVE93Ly-111" target="JGVSWITVULdOfcVE93Ly-121">
          <mxGeometry relative="1" as="geometry" />
        </mxCell>
        <mxCell id="JGVSWITVULdOfcVE93Ly-128" style="edgeStyle=orthogonalEdgeStyle;rounded=0;orthogonalLoop=1;jettySize=auto;html=1;exitX=1;exitY=0.5;exitDx=0;exitDy=0;entryX=0;entryY=0.5;entryDx=0;entryDy=0;" edge="1" parent="1" source="JGVSWITVULdOfcVE93Ly-111" target="JGVSWITVULdOfcVE93Ly-122">
          <mxGeometry relative="1" as="geometry" />
        </mxCell>
        <mxCell id="JGVSWITVULdOfcVE93Ly-129" style="edgeStyle=orthogonalEdgeStyle;rounded=0;orthogonalLoop=1;jettySize=auto;html=1;exitX=1;exitY=1;exitDx=0;exitDy=0;entryX=0;entryY=0.5;entryDx=0;entryDy=0;" edge="1" parent="1" source="JGVSWITVULdOfcVE93Ly-111" target="JGVSWITVULdOfcVE93Ly-123">
          <mxGeometry relative="1" as="geometry" />
        </mxCell>
        <mxCell id="JGVSWITVULdOfcVE93Ly-111" value="juez" style="ellipse;whiteSpace=wrap;html=1;" vertex="1" parent="1">
          <mxGeometry x="390" y="310" width="125" height="101" as="geometry" />
        </mxCell>
        <mxCell id="JGVSWITVULdOfcVE93Ly-113" value="" style="group" vertex="1" connectable="0" parent="1">
          <mxGeometry x="180" y="920" width="220" height="69" as="geometry" />
        </mxCell>
        <mxCell id="JGVSWITVULdOfcVE93Ly-61" value="" style="ellipse;whiteSpace=wrap;html=1;strokeWidth=2;fillWeight=2;hachureGap=8;fillColor=#f8cecc;fillStyle=dots;sketch=1;strokeColor=#b85450;container=0;" vertex="1" parent="JGVSWITVULdOfcVE93Ly-113">
          <mxGeometry y="5" width="20" height="20" as="geometry" />
        </mxCell>
        <mxCell id="JGVSWITVULdOfcVE93Ly-62" value="" style="ellipse;whiteSpace=wrap;html=1;strokeWidth=2;fillWeight=2;hachureGap=8;fillColor=#f8cecc;fillStyle=dots;sketch=1;strokeColor=#b85450;container=0;" vertex="1" parent="JGVSWITVULdOfcVE93Ly-113">
          <mxGeometry y="44" width="20" height="20" as="geometry" />
        </mxCell>
        <mxCell id="JGVSWITVULdOfcVE93Ly-63" value="PersonaDetenidaCodigo_Persona" style="text;html=1;align=center;verticalAlign=middle;resizable=0;points=[];autosize=1;strokeColor=none;fillColor=none;" vertex="1" parent="JGVSWITVULdOfcVE93Ly-113">
          <mxGeometry x="10" width="210" height="30" as="geometry" />
        </mxCell>
        <mxCell id="JGVSWITVULdOfcVE93Ly-64" value="BandaOrganizadaNumero_Banda" style="text;html=1;align=center;verticalAlign=middle;resizable=0;points=[];autosize=1;strokeColor=none;fillColor=none;" vertex="1" parent="JGVSWITVULdOfcVE93Ly-113">
          <mxGeometry x="15" y="39" width="200" height="30" as="geometry" />
        </mxCell>
        <mxCell id="JGVSWITVULdOfcVE93Ly-116" style="edgeStyle=orthogonalEdgeStyle;rounded=0;orthogonalLoop=1;jettySize=auto;html=1;exitX=0.5;exitY=1;exitDx=0;exitDy=0;entryX=0.571;entryY=0.017;entryDx=0;entryDy=0;entryPerimeter=0;" edge="1" parent="1" source="JGVSWITVULdOfcVE93Ly-50" target="JGVSWITVULdOfcVE93Ly-49">
          <mxGeometry relative="1" as="geometry" />
        </mxCell>
        <mxCell id="JGVSWITVULdOfcVE93Ly-117" style="edgeStyle=orthogonalEdgeStyle;rounded=0;orthogonalLoop=1;jettySize=auto;html=1;exitX=1;exitY=0.5;exitDx=0;exitDy=0;entryX=0.04;entryY=0.5;entryDx=0;entryDy=0;entryPerimeter=0;" edge="1" parent="1" source="JGVSWITVULdOfcVE93Ly-69" target="JGVSWITVULdOfcVE93Ly-49">
          <mxGeometry relative="1" as="geometry" />
        </mxCell>
        <mxCell id="JGVSWITVULdOfcVE93Ly-119" value="1/N" style="html=1;whiteSpace=wrap;aspect=fixed;shape=isoRectangle;" vertex="1" parent="1">
          <mxGeometry x="-10" y="780" width="100" height="60" as="geometry" />
        </mxCell>
        <mxCell id="JGVSWITVULdOfcVE93Ly-120" style="edgeStyle=orthogonalEdgeStyle;rounded=0;orthogonalLoop=1;jettySize=auto;html=1;exitX=0.5;exitY=1;exitDx=0;exitDy=0;entryX=0.534;entryY=-0.033;entryDx=0;entryDy=0;entryPerimeter=0;" edge="1" parent="1" source="m9WbxkBDuGPvymWc-Egg-89" target="JGVSWITVULdOfcVE93Ly-119">
          <mxGeometry relative="1" as="geometry" />
        </mxCell>
        <mxCell id="JGVSWITVULdOfcVE93Ly-121" value="" style="ellipse;whiteSpace=wrap;html=1;strokeWidth=2;fillWeight=2;hachureGap=8;fillColor=#d5e8d4;fillStyle=dots;sketch=1;strokeColor=#82b366;" vertex="1" parent="1">
          <mxGeometry x="570" y="305" width="20" height="20" as="geometry" />
        </mxCell>
        <mxCell id="JGVSWITVULdOfcVE93Ly-122" value="" style="ellipse;shape=doubleEllipse;whiteSpace=wrap;html=1;aspect=fixed;container=0;" vertex="1" parent="1">
          <mxGeometry x="570" y="340" width="20" height="20" as="geometry" />
        </mxCell>
        <mxCell id="JGVSWITVULdOfcVE93Ly-123" value="" style="ellipse;shape=doubleEllipse;whiteSpace=wrap;html=1;aspect=fixed;container=0;" vertex="1" parent="1">
          <mxGeometry x="570" y="370" width="20" height="20" as="geometry" />
        </mxCell>
        <mxCell id="JGVSWITVULdOfcVE93Ly-124" value="Clave_Juez" style="text;html=1;align=center;verticalAlign=middle;resizable=0;points=[];autosize=1;strokeColor=none;fillColor=none;" vertex="1" parent="1">
          <mxGeometry x="580" y="305" width="90" height="30" as="geometry" />
        </mxCell>
        <mxCell id="JGVSWITVULdOfcVE93Ly-125" value="Nombre" style="text;html=1;align=center;verticalAlign=middle;resizable=0;points=[];autosize=1;strokeColor=none;fillColor=none;" vertex="1" parent="1">
          <mxGeometry x="590" y="335" width="70" height="30" as="geometry" />
        </mxCell>
        <mxCell id="JGVSWITVULdOfcVE93Ly-126" value="AÃ±oa-Servicio" style="text;html=1;align=center;verticalAlign=middle;resizable=0;points=[];autosize=1;strokeColor=none;fillColor=none;" vertex="1" parent="1">
          <mxGeometry x="590" y="365" width="100" height="30" as="geometry" />
        </mxCell>
        <mxCell id="JGVSWITVULdOfcVE93Ly-131" value="" style="ellipse;shape=doubleEllipse;whiteSpace=wrap;html=1;aspect=fixed;container=0;" vertex="1" parent="1">
          <mxGeometry x="-570" y="650.25" width="20" height="20" as="geometry" />
        </mxCell>
        <mxCell id="JGVSWITVULdOfcVE93Ly-132" value="" style="ellipse;whiteSpace=wrap;html=1;strokeWidth=2;fillWeight=2;hachureGap=8;fillColor=#f8cecc;fillStyle=dots;sketch=1;strokeColor=#b85450;container=0;" vertex="1" parent="1">
          <mxGeometry x="-570" y="689.5" width="20" height="20" as="geometry" />
        </mxCell>
        <mxCell id="JGVSWITVULdOfcVE93Ly-133" value="" style="ellipse;whiteSpace=wrap;html=1;strokeWidth=2;fillWeight=2;hachureGap=8;fillColor=#f8cecc;fillStyle=dots;sketch=1;strokeColor=#b85450;container=0;" vertex="1" parent="1">
          <mxGeometry x="-570" y="725.75" width="20" height="20" as="geometry" />
        </mxCell>
        <mxCell id="JGVSWITVULdOfcVE93Ly-135" value="Fecha_Atraco" style="text;html=1;align=center;verticalAlign=middle;resizable=0;points=[];autosize=1;strokeColor=none;fillColor=none;" vertex="1" parent="1">
          <mxGeometry x="-540" y="645.25" width="100" height="30" as="geometry" />
        </mxCell>
        <mxCell id="JGVSWITVULdOfcVE93Ly-136" value="SucursalCodigo_Sucuersal" style="text;html=1;align=center;verticalAlign=middle;resizable=0;points=[];autosize=1;strokeColor=none;fillColor=none;" vertex="1" parent="1">
          <mxGeometry x="-558.5" y="685.25" width="170" height="30" as="geometry" />
        </mxCell>
        <mxCell id="JGVSWITVULdOfcVE93Ly-140" value="PersonaDetenidaCodigo_Persona" style="text;html=1;align=center;verticalAlign=middle;resizable=0;points=[];autosize=1;strokeColor=none;fillColor=none;" vertex="1" parent="1">
          <mxGeometry x="-558.5" y="725.75" width="210" height="30" as="geometry" />
        </mxCell>
        <mxCell id="JGVSWITVULdOfcVE93Ly-141" style="edgeStyle=orthogonalEdgeStyle;rounded=0;orthogonalLoop=1;jettySize=auto;html=1;entryX=0.995;entryY=0.632;entryDx=0;entryDy=0;entryPerimeter=0;" edge="1" parent="1" target="JGVSWITVULdOfcVE93Ly-140">
          <mxGeometry relative="1" as="geometry">
            <mxPoint x="-310" y="720" as="sourcePoint" />
            <Array as="points">
              <mxPoint x="-310" y="745" />
            </Array>
          </mxGeometry>
        </mxCell>
        <mxCell id="JGVSWITVULdOfcVE93Ly-142" value="N" style="text;html=1;align=center;verticalAlign=middle;resizable=0;points=[];autosize=1;strokeColor=none;fillColor=none;" vertex="1" parent="1">
          <mxGeometry x="95" y="138" width="30" height="30" as="geometry" />
        </mxCell>
        <mxCell id="JGVSWITVULdOfcVE93Ly-143" value="N" style="text;html=1;align=center;verticalAlign=middle;resizable=0;points=[];autosize=1;strokeColor=none;fillColor=none;" vertex="1" parent="1">
          <mxGeometry x="135" y="138" width="30" height="30" as="geometry" />
        </mxCell>
        <mxCell id="JGVSWITVULdOfcVE93Ly-145" value="N" style="text;html=1;align=center;verticalAlign=middle;resizable=0;points=[];autosize=1;strokeColor=none;fillColor=none;" vertex="1" parent="1">
          <mxGeometry x="-260" y="615.25" width="30" height="30" as="geometry" />
        </mxCell>
        <mxCell id="JGVSWITVULdOfcVE93Ly-146" value="N" style="text;html=1;align=center;verticalAlign=middle;resizable=0;points=[];autosize=1;strokeColor=none;fillColor=none;" vertex="1" parent="1">
          <mxGeometry x="-261.5" y="574.5" width="30" height="30" as="geometry" />
        </mxCell>
        <mxCell id="JGVSWITVULdOfcVE93Ly-147" value="N" style="text;html=1;align=center;verticalAlign=middle;resizable=0;points=[];autosize=1;strokeColor=none;fillColor=none;" vertex="1" parent="1">
          <mxGeometry x="40" y="10" width="30" height="30" as="geometry" />
        </mxCell>
        <mxCell id="JGVSWITVULdOfcVE93Ly-148" value="1" style="text;html=1;align=center;verticalAlign=middle;resizable=0;points=[];autosize=1;strokeColor=none;fillColor=none;" vertex="1" parent="1">
          <mxGeometry x="40" y="40" width="30" height="30" as="geometry" />
        </mxCell>
        <mxCell id="JGVSWITVULdOfcVE93Ly-149" value="1" style="text;html=1;align=center;verticalAlign=middle;resizable=0;points=[];autosize=1;strokeColor=none;fillColor=none;" vertex="1" parent="1">
          <mxGeometry x="-260" y="48" width="30" height="30" as="geometry" />
        </mxCell>
        <mxCell id="JGVSWITVULdOfcVE93Ly-150" value="N" style="text;html=1;align=center;verticalAlign=middle;resizable=0;points=[];autosize=1;strokeColor=none;fillColor=none;" vertex="1" parent="1">
          <mxGeometry x="-260" y="78" width="30" height="30" as="geometry" />
        </mxCell>
        <mxCell id="JGVSWITVULdOfcVE93Ly-151" value="N" style="text;html=1;align=center;verticalAlign=middle;resizable=0;points=[];autosize=1;strokeColor=none;fillColor=none;" vertex="1" parent="1">
          <mxGeometry x="-325" y="468" width="30" height="30" as="geometry" />
        </mxCell>
        <mxCell id="JGVSWITVULdOfcVE93Ly-152" value="1" style="text;html=1;align=center;verticalAlign=middle;resizable=0;points=[];autosize=1;strokeColor=none;fillColor=none;" vertex="1" parent="1">
          <mxGeometry x="-325" y="278" width="30" height="30" as="geometry" />
        </mxCell>
        <mxCell id="JGVSWITVULdOfcVE93Ly-153" value="1" style="text;html=1;align=center;verticalAlign=middle;resizable=0;points=[];autosize=1;strokeColor=none;fillColor=none;" vertex="1" parent="1">
          <mxGeometry x="-365" y="468" width="30" height="30" as="geometry" />
        </mxCell>
        <mxCell id="JGVSWITVULdOfcVE93Ly-154" value="N" style="text;html=1;align=center;verticalAlign=middle;resizable=0;points=[];autosize=1;strokeColor=none;fillColor=none;" vertex="1" parent="1">
          <mxGeometry x="-365" y="280" width="30" height="30" as="geometry" />
        </mxCell>
        <mxCell id="JGVSWITVULdOfcVE93Ly-155" value="1" style="text;html=1;align=center;verticalAlign=middle;resizable=0;points=[];autosize=1;strokeColor=none;fillColor=none;" vertex="1" parent="1">
          <mxGeometry x="-271.5" y="235" width="30" height="30" as="geometry" />
        </mxCell>
        <mxCell id="JGVSWITVULdOfcVE93Ly-156" value="N" style="text;html=1;align=center;verticalAlign=middle;resizable=0;points=[];autosize=1;strokeColor=none;fillColor=none;" vertex="1" parent="1">
          <mxGeometry x="-275" y="188" width="30" height="30" as="geometry" />
        </mxCell>
        <mxCell id="JGVSWITVULdOfcVE93Ly-157" value="N" style="text;html=1;align=center;verticalAlign=middle;resizable=0;points=[];autosize=1;strokeColor=none;fillColor=none;" vertex="1" parent="1">
          <mxGeometry x="85" y="98" width="30" height="30" as="geometry" />
        </mxCell>
        <mxCell id="JGVSWITVULdOfcVE93Ly-158" value="1" style="text;html=1;align=center;verticalAlign=middle;resizable=0;points=[];autosize=1;strokeColor=none;fillColor=none;" vertex="1" parent="1">
          <mxGeometry x="85" y="70" width="30" height="30" as="geometry" />
        </mxCell>
        <mxCell id="JGVSWITVULdOfcVE93Ly-159" value="N" style="text;html=1;align=center;verticalAlign=middle;resizable=0;points=[];autosize=1;strokeColor=none;fillColor=none;" vertex="1" parent="1">
          <mxGeometry x="-255" y="1078" width="30" height="30" as="geometry" />
        </mxCell>
        <mxCell id="JGVSWITVULdOfcVE93Ly-160" value="N" style="text;html=1;align=center;verticalAlign=middle;resizable=0;points=[];autosize=1;strokeColor=none;fillColor=none;" vertex="1" parent="1">
          <mxGeometry x="45" y="978" width="30" height="30" as="geometry" />
        </mxCell>
        <mxCell id="JGVSWITVULdOfcVE93Ly-161" value="1" style="text;html=1;align=center;verticalAlign=middle;resizable=0;points=[];autosize=1;strokeColor=none;fillColor=none;" vertex="1" parent="1">
          <mxGeometry x="-7.5" y="980" width="30" height="30" as="geometry" />
        </mxCell>
        <mxCell id="JGVSWITVULdOfcVE93Ly-162" value="1" style="text;html=1;align=center;verticalAlign=middle;resizable=0;points=[];autosize=1;strokeColor=none;fillColor=none;" vertex="1" parent="1">
          <mxGeometry x="-255" y="1118" width="30" height="30" as="geometry" />
        </mxCell>
        <mxCell id="JGVSWITVULdOfcVE93Ly-163" value="1" style="text;html=1;align=center;verticalAlign=middle;resizable=0;points=[];autosize=1;strokeColor=none;fillColor=none;" vertex="1" parent="1">
          <mxGeometry x="135" y="888" width="30" height="30" as="geometry" />
        </mxCell>
        <mxCell id="JGVSWITVULdOfcVE93Ly-164" value="" style="ellipse;shape=doubleEllipse;whiteSpace=wrap;html=1;aspect=fixed;container=0;" vertex="1" parent="1">
          <mxGeometry x="-650" y="215" width="20" height="20" as="geometry" />
        </mxCell>
        <mxCell id="JGVSWITVULdOfcVE93Ly-166" value="1" style="text;html=1;align=center;verticalAlign=middle;resizable=0;points=[];autosize=1;strokeColor=none;fillColor=none;" vertex="1" parent="1">
          <mxGeometry x="-235" y="684.5" width="30" height="30" as="geometry" />
        </mxCell>
        <mxCell id="JGVSWITVULdOfcVE93Ly-167" value="1" style="text;html=1;align=center;verticalAlign=middle;resizable=0;points=[];autosize=1;strokeColor=none;fillColor=none;" vertex="1" parent="1">
          <mxGeometry x="-37.5" y="700.25" width="30" height="30" as="geometry" />
        </mxCell>
        <mxCell id="JGVSWITVULdOfcVE93Ly-168" value="N" style="text;html=1;align=center;verticalAlign=middle;resizable=0;points=[];autosize=1;strokeColor=none;fillColor=none;" vertex="1" parent="1">
          <mxGeometry x="-235" y="725.75" width="30" height="30" as="geometry" />
        </mxCell>
        <mxCell id="JGVSWITVULdOfcVE93Ly-169" value="N" style="text;html=1;align=center;verticalAlign=middle;resizable=0;points=[];autosize=1;strokeColor=none;fillColor=none;" vertex="1" parent="1">
          <mxGeometry x="-37.5" y="655.25" width="30" height="30" as="geometry" />
        </mxCell>
        <mxCell id="JGVSWITVULdOfcVE93Ly-170" value="N" style="text;html=1;align=center;verticalAlign=middle;resizable=0;points=[];autosize=1;strokeColor=none;fillColor=none;" vertex="1" parent="1">
          <mxGeometry x="55" y="718" width="30" height="30" as="geometry" />
        </mxCell>
        <mxCell id="JGVSWITVULdOfcVE93Ly-171" value="1" style="text;html=1;align=center;verticalAlign=middle;resizable=0;points=[];autosize=1;strokeColor=none;fillColor=none;" vertex="1" parent="1">
          <mxGeometry x="10" y="720.75" width="30" height="30" as="geometry" />
        </mxCell>
        <mxCell id="JGVSWITVULdOfcVE93Ly-172" value="1" style="text;html=1;align=center;verticalAlign=middle;resizable=0;points=[];autosize=1;strokeColor=none;fillColor=none;" vertex="1" parent="1">
          <mxGeometry x="50" y="870" width="30" height="30" as="geometry" />
        </mxCell>
        <mxCell id="JGVSWITVULdOfcVE93Ly-173" value="N" style="text;html=1;align=center;verticalAlign=middle;resizable=0;points=[];autosize=1;strokeColor=none;fillColor=none;" vertex="1" parent="1">
          <mxGeometry x="2.5" y="870" width="30" height="30" as="geometry" />
        </mxCell>
        <mxCell id="JGVSWITVULdOfcVE93Ly-174" value="N" style="text;html=1;align=center;verticalAlign=middle;resizable=0;points=[];autosize=1;strokeColor=none;fillColor=none;" vertex="1" parent="1">
          <mxGeometry x="85" y="880" width="30" height="30" as="geometry" />
        </mxCell>
        <mxCell id="JGVSWITVULdOfcVE93Ly-175" value="N" style="text;html=1;align=center;verticalAlign=middle;resizable=0;points=[];autosize=1;strokeColor=none;fillColor=none;" vertex="1" parent="1">
          <mxGeometry x="450" y="725.75" width="30" height="30" as="geometry" />
        </mxCell>
        <mxCell id="JGVSWITVULdOfcVE93Ly-176" value="1" style="text;html=1;align=center;verticalAlign=middle;resizable=0;points=[];autosize=1;strokeColor=none;fillColor=none;" vertex="1" parent="1">
          <mxGeometry x="420" y="720.75" width="30" height="30" as="geometry" />
        </mxCell>
        <mxCell id="JGVSWITVULdOfcVE93Ly-177" value="N" style="text;html=1;align=center;verticalAlign=middle;resizable=0;points=[];autosize=1;strokeColor=none;fillColor=none;" vertex="1" parent="1">
          <mxGeometry x="460" y="594.75" width="30" height="30" as="geometry" />
        </mxCell>
        <mxCell id="JGVSWITVULdOfcVE93Ly-180" value="N" style="text;html=1;align=center;verticalAlign=middle;resizable=0;points=[];autosize=1;strokeColor=none;fillColor=none;" vertex="1" parent="1">
          <mxGeometry x="445" y="418" width="30" height="30" as="geometry" />
        </mxCell>
        <mxCell id="JGVSWITVULdOfcVE93Ly-181" value="1" style="text;html=1;align=center;verticalAlign=middle;resizable=0;points=[];autosize=1;strokeColor=none;fillColor=none;" vertex="1" parent="1">
          <mxGeometry x="420" y="418" width="30" height="30" as="geometry" />
        </mxCell>
        <mxCell id="JGVSWITVULdOfcVE93Ly-182" value="1" style="text;html=1;align=center;verticalAlign=middle;resizable=0;points=[];autosize=1;strokeColor=none;fillColor=none;" vertex="1" parent="1">
          <mxGeometry x="115" y="688" width="30" height="30" as="geometry" />
        </mxCell>
        <mxCell id="JGVSWITVULdOfcVE93Ly-183" value="N" style="text;html=1;align=center;verticalAlign=middle;resizable=0;points=[];autosize=1;strokeColor=none;fillColor=none;" vertex="1" parent="1">
          <mxGeometry x="115" y="648" width="30" height="30" as="geometry" />
        </mxCell>
        <mxCell id="JGVSWITVULdOfcVE93Ly-186" value="1" style="text;html=1;align=center;verticalAlign=middle;resizable=0;points=[];autosize=1;strokeColor=none;fillColor=none;" vertex="1" parent="1">
          <mxGeometry x="414" y="594.75" width="30" height="30" as="geometry" />
        </mxCell>
        <mxCell id="JGVSWITVULdOfcVE93Ly-187" value="N" style="text;html=1;align=center;verticalAlign=middle;resizable=0;points=[];autosize=1;strokeColor=none;fillColor=none;" vertex="1" parent="1">
          <mxGeometry x="350" y="678" width="30" height="30" as="geometry" />
        </mxCell>
        <mxCell id="JGVSWITVULdOfcVE93Ly-188" value="1" style="text;html=1;align=center;verticalAlign=middle;resizable=0;points=[];autosize=1;strokeColor=none;fillColor=none;" vertex="1" parent="1">
          <mxGeometry x="350" y="640.25" width="30" height="30" as="geometry" />
        </mxCell>
      </root>
    </mxGraphModel>
  </diagram>
</mxfile>
